<svg xmlns="http://www.w3.org/2000/svg" xmlns:xlink="http://www.w3.org/1999/xlink" width="23.147" height="17.931" viewBox="0 0 23.147 17.931">
  <defs>
    <clipPath id="clip-path">
      <rect id="Rectangle_40" data-name="Rectangle 40" width="23.147" height="17.931" transform="translate(0 0)" fill="none"/>
    </clipPath>
  </defs>
  <g id="Discord_logo" data-name="Discord logo" clip-path="url(#clip-path)">
    <path id="Path_311" data-name="Path 311" d="M436.079,454.344a2.348,2.348,0,1,1,2.081-2.333A2.225,2.225,0,0,1,436.079,454.344Zm-7.692,0a2.348,2.348,0,1,1,2.081-2.333,2.225,2.225,0,0,1-2.081,2.333Zm11.86-10.573a19.088,19.088,0,0,0-4.712-1.461.071.071,0,0,0-.076.035,13.3,13.3,0,0,0-.587,1.205,17.623,17.623,0,0,0-5.292,0,12.209,12.209,0,0,0-.6-1.205.075.075,0,0,0-.076-.035,19.036,19.036,0,0,0-4.712,1.461.067.067,0,0,0-.03.027,19.553,19.553,0,0,0-3.422,13.179.08.08,0,0,0,.03.055,19.2,19.2,0,0,0,5.78,2.922.075.075,0,0,0,.081-.027A13.719,13.719,0,0,0,427.819,458a.073.073,0,0,0-.041-.1,12.641,12.641,0,0,1-1.806-.86.075.075,0,0,1-.008-.127c.127-.091.243-.185.359-.281a.071.071,0,0,1,.075-.01,13.688,13.688,0,0,0,11.633,0,.071.071,0,0,1,.076.009c.115.1.237.191.36.281a.075.075,0,0,1-.006.127,11.863,11.863,0,0,1-1.8.855.074.074,0,0,0-.039.1,15.406,15.406,0,0,0,1.18,1.924.074.074,0,0,0,.081.028,19.136,19.136,0,0,0,5.789-2.922.075.075,0,0,0,.03-.053,19.428,19.428,0,0,0-3.422-13.179.059.059,0,0,0-.033-.024Z" transform="translate(-420.653 -442.175)"/>
  </g>
</svg>
